<?xml version="1.0" standalone="no"?>
<!DOCTYPE svg PUBLIC "-//W3C//DTD SVG 20010904//EN"
 "http://www.w3.org/TR/2001/REC-SVG-20010904/DTD/svg10.dtd">
<svg version="1.0" xmlns="http://www.w3.org/2000/svg"
 width="403.000000pt" height="403.000000pt" viewBox="0 0 403.000000 403.000000"
 preserveAspectRatio="xMidYMid meet">
<metadata>
Created by potrace 1.14, written by Peter Selinger 2001-2017
</metadata>
<g transform="translate(0.000000,403.000000) scale(0.100000,-0.100000)"
fill="#000000" stroke="none">
<path d="M1230 3465 c-142 -29 -268 -89 -358 -170 -56 -50 -130 -155 -161
-228 -47 -109 -64 -309 -37 -433 38 -180 174 -345 369 -448 127 -68 385 -142
555 -161 l62 -7 0 145 0 144 -92 13 c-133 17 -264 53 -350 95 -77 38 -188 127
-188 151 0 8 -4 14 -9 14 -5 0 -19 32 -31 70 -19 60 -22 85 -17 168 7 126 26
179 92 251 58 62 133 105 212 121 26 5 176 11 333 12 l285 3 0 -995 c0 -938
-1 -998 -18 -1055 -43 -139 -102 -213 -210 -264 -95 -44 -157 -54 -303 -48
-180 7 -258 35 -361 131 -92 85 -139 202 -152 374 l-6 83 -153 2 -154 2 7
-105 c11 -171 41 -270 133 -436 20 -37 133 -147 186 -183 173 -115 334 -157
566 -148 165 6 269 31 395 93 196 97 321 261 366 479 17 84 19 154 19 1083 l0
992 60 0 c33 0 60 -4 60 -9 0 -6 12 -6 32 0 38 11 181 3 293 -16 169 -28 282
-82 380 -180 82 -82 111 -144 141 -303 l5 -23 152 6 152 6 -3 45 c-5 74 -40
194 -79 273 -42 84 -163 219 -246 274 -160 106 -323 162 -542 187 -141 16
-1304 11 -1385 -5z"/>
<path d="M2438 2103 c2 -76 5 -139 5 -140 1 0 60 -11 131 -23 179 -30 284 -62
400 -123 125 -66 191 -130 243 -233 38 -77 38 -79 37 -193 0 -104 -3 -122 -27
-175 -41 -89 -112 -171 -202 -232 -135 -91 -368 -154 -574 -154 l-107 0 -12
-32 c-17 -45 -81 -130 -92 -123 -5 3 -7 0 -4 -8 3 -8 -14 -31 -41 -56 -25 -23
-45 -46 -45 -51 0 -13 284 -13 424 0 188 18 414 82 547 154 35 19 99 61 144
93 44 32 85 56 90 55 6 -2 7 0 3 4 -4 4 11 30 35 58 124 147 177 291 177 482
0 186 -58 334 -183 465 -121 127 -248 206 -436 271 -151 52 -378 98 -486 98
l-30 0 3 -137z"/>
</g>
</svg>
